<svg width="883" height="220" viewBox="0 0 883 220" fill="none" xmlns="http://www.w3.org/2000/svg">
<path d="M190 46L136 78.5L190 110L245 78.5L190 46Z" fill="#DBF4E9"/>
<path d="M688 114L634 146.5L688 178L743 146.5L688 114Z" fill="#DBF4E9"/>
<path d="M104.11 42L62 67.3906L104.11 92L147 67.3906L104.11 42Z" fill="#DBF4E9"/>
<path d="M315 16L261 48.5L315 80L370 48.5L315 16Z" fill="#DBF4E9"/>
<path d="M367 42L313 74.5L367 106L422 74.5L367 42Z" fill="#DBF4E9"/>
<path d="M379.055 25L331 53.9453L379.055 82L428 53.9453L379.055 25Z" fill="#DBF4E9"/>
<path d="M372.239 106L344 122.758L372.239 139L401 122.758L372.239 106Z" fill="#DBF4E9"/>
<path d="M258.239 85L230 101.758L258.239 118L287 101.758L258.239 85Z" fill="#DBF4E9"/>
<path d="M403.239 108L375 124.758L403.239 141L432 124.758L403.239 108Z" fill="#DBF4E9"/>
<path d="M559.193 76L526 95.8047L559.193 115L593 95.8047L559.193 76Z" fill="#DBF4E9"/>
<path d="M456 34L402 66.5L456 98L511 66.5L456 34Z" fill="#DBF4E9"/>
<path d="M514.661 128L478 149.836L514.661 171L552 149.836L514.661 128Z" fill="#DBF4E9"/>
<path d="M521 10L467 42.5L521 74L576 42.5L521 10Z" fill="#DBF4E9"/>
<path d="M603 24L549 56.5L603 88L658 56.5L603 24Z" fill="#DBF4E9"/>
<path d="M728.119 58L687 82.8828L728.119 107L770 82.8828L728.119 58Z" fill="#C1E1D3"/>
<path d="M807 22L753 54.5L807 86L862 54.5L807 22Z" fill="#DBF4E9"/>
<path d="M327.679 71L293 91.8203L327.679 112L363 91.8203L327.679 71Z" fill="#E7FAF3"/>
<path d="M379.202 44L347 63.2969L379.202 82L412 63.2969L379.202 44Z" fill="#E7FAF3"/>
<path d="M582.239 24L554 40.7578L582.239 57L611 40.7578L582.239 24Z" fill="#E7FAF3"/>
<path d="M216.578 120L171 147.422L216.578 174L263 147.422L216.578 120Z" fill="#C1E1D3"/>
<path d="M115.615 94L74 118.883L115.615 143L158 118.883L115.615 94Z" fill="#DBF4E9"/>
<path d="M338.211 178L307 196.789L338.211 215L370 196.789L338.211 178Z" fill="#E7FAF3"/>
<path d="M40.0183 25L-12 56.4844L40.0183 87L93 56.4844L40.0183 25Z" fill="#C1E1D3"/>
<path d="M40.0183 25L-12 56.4844L40.0183 87L93 56.4844L40.0183 25Z" fill="#C1E1D3"/>
<path d="M322.018 102L270 133.484L322.018 164L375 133.484L322.018 102Z" fill="#C1E1D3"/>
<path d="M322.018 102L270 133.484L322.018 164L375 133.484L322.018 102Z" fill="#C1E1D3"/>
<path d="M67.6422 108L29 131.359L67.6422 154L107 131.359L67.6422 108Z" fill="#C1E1D3"/>
<path d="M67.6422 108L29 131.359L67.6422 154L107 131.359L67.6422 108Z" fill="#C1E1D3"/>
<path d="M627.156 154L590 176.344L627.156 198L665 176.344L627.156 154Z" fill="#C1E1D3"/>
<path d="M627.156 154L590 176.344L627.156 198L665 176.344L627.156 154Z" fill="#C1E1D3"/>
<path d="M769.266 127L744 142.234L769.266 157L795 142.234L769.266 127Z" fill="#C1E1D3"/>
<path d="M769.266 127L744 142.234L769.266 157L795 142.234L769.266 127Z" fill="#C1E1D3"/>
<path d="M43.578 73L-2 100.422L43.578 127L90 100.422L43.578 73Z" fill="#E7FAF3"/>
<path d="M840.138 77L801 100.359L840.138 123L880 100.359L840.138 77Z" fill="#E7FAF3"/>
<path d="M876.578 32L831 59.4219L876.578 86L923 59.4219L876.578 32Z" fill="#DBF4E9"/>
<path d="M659.651 40L622 62.8516L659.651 85L698 62.8516L659.651 40Z" fill="#E7FAF3"/>
<path d="M734.193 160L701 179.805L734.193 199L768 179.805L734.193 160Z" fill="#E7FAF3"/>
<path d="M831.202 130L799 149.297L831.202 168L864 149.297L831.202 130Z" fill="#DBF4E9"/>
<path d="M800.11 80L758 105.391L800.11 130L843 105.391L800.11 80Z" fill="#DBF4E9"/>
<path d="M724.578 37L679 64.4219L724.578 91L771 64.4219L724.578 37Z" fill="#DBF4E9"/>
<path d="M502.578 40L457 67.4219L502.578 94L549 67.4219L502.578 40Z" fill="#E7FAF3"/>
<path d="M293.78 161L270 175.219L293.78 189L318 175.219L293.78 161Z" fill="#E7FAF3"/>
<path d="M79.2202 157L49 175.281L79.2202 193L110 175.281L79.2202 157Z" fill="#C1E1D3"/>
<path d="M79.2202 157L49 175.281L79.2202 193L110 175.281L79.2202 157Z" fill="#E7FAF3"/>
<path d="M144.028 31L93 61.9766L144.028 92L196 61.9766L144.028 31Z" fill="#C1E1D3"/>
<path d="M144.028 31L93 61.9766L144.028 92L196 61.9766L144.028 31Z" fill="#DBF4E9"/>
<path d="M258.028 18L207 48.9766L258.028 79L310 48.9766L258.028 18Z" fill="#C1E1D3"/>
<path d="M258.028 18L207 48.9766L258.028 79L310 48.9766L258.028 18Z" fill="#DBF4E9"/>
<path d="M804.734 28L776 45.2656L804.734 62L834 45.2656L804.734 28Z" fill="#C1E1D3"/>
<path d="M804.734 28L776 45.2656L804.734 62L834 45.2656L804.734 28Z" fill="#E7FAF3"/>
<path d="M724.734 30L696 47.2656L724.734 64L754 47.2656L724.734 30Z" fill="#C1E1D3"/>
<path d="M724.734 30L696 47.2656L724.734 64L754 47.2656L724.734 30Z" fill="#E7FAF3"/>
<path d="M452.633 74L413 97.8672L452.633 121L493 97.8672L452.633 74Z" fill="#E7FAF3"/>
<path d="M133.706 142L102 161.297L133.706 180L166 161.297L133.706 142Z" fill="#E7FAF3"/>
<path d="M118.147 19L80 41.8516L118.147 64L157 41.8516L118.147 19Z" fill="#E7FAF3"/>
<path d="M17.1927 142L-16 161.805L17.1927 181L51 161.805L17.1927 142Z" fill="#E7FAF3"/>
<path d="M218.128 23L178 46.8672L218.128 70L259 46.8672L218.128 23Z" fill="#E7FAF3"/>
<path d="M296.266 22L271 37.2344L296.266 52L322 37.2344L296.266 22Z" fill="#DBF4E9"/>
<path d="M442.266 11L417 26.2344L442.266 41L468 26.2344L442.266 11Z" fill="#E7FAF3"/>
<path d="M310.211 0L279 18.7891L310.211 37L342 18.7891L310.211 0Z" fill="#E7FAF3"/>
<path d="M199.624 94L159 118.375L199.624 142L241 118.375L199.624 94Z" fill="#E7FAF3"/>
<path d="M593.578 106L548 133.422L593.578 160L640 133.422L593.578 106Z" fill="#E7FAF3"/>
<path d="M452.211 123L421 141.789L452.211 160L484 141.789L452.211 123Z" fill="#E7FAF3"/>
<path d="M662.578 82L617 109.422L662.578 136L709 109.422L662.578 82Z" fill="#E7FAF3"/>
<path d="M557.174 169L522 190.328L557.174 211L593 190.328L557.174 169Z" fill="#E7FAF3"/>
<path d="M514.688 99L481 119.82L514.688 140L549 119.82L514.688 99Z" fill="#C1E1D3"/>
<path d="M514.688 99L481 119.82L514.688 140L549 119.82L514.688 99Z" fill="#C1E1D3"/>
<path d="M735.633 0L696 24.375L735.633 48L776 24.375L735.633 0Z" fill="#C1E1D3"/>
<path d="M735.633 0L696 24.375L735.633 48L776 24.375L735.633 0Z" fill="#C1E1D3"/>
<path d="M528.275 1L504 16.2344L528.275 31L553 16.2344L528.275 1Z" fill="#C1E1D3"/>
<path d="M528.275 1L504 16.2344L528.275 31L553 16.2344L528.275 1Z" fill="#C1E1D3"/>
<path d="M300.248 23L273 40.2656L300.248 57L328 40.2656L300.248 23Z" fill="#C1E1D3"/>
<path d="M300.248 23L273 40.2656L300.248 57L328 40.2656L300.248 23Z" fill="#C1E1D3"/>
<path d="M384.303 1L363 14.7109L384.303 28L406 14.7109L384.303 1Z" fill="#C1E1D3"/>
<path d="M384.303 1L363 14.7109L384.303 28L406 14.7109L384.303 1Z" fill="#C1E1D3"/>
<path d="M457.578 166L412 193.422L457.578 220L504 193.422L457.578 166Z" fill="#E7FAF3"/>
<path d="M389.706 149L358 168.297L389.706 187L422 168.297L389.706 149Z" fill="#E7FAF3"/>
<path d="M284.147 109L246 131.852L284.147 154L323 131.852L284.147 109Z" fill="#E7FAF3"/>
</svg>
